<svg xmlns="http://www.w3.org/2000/svg" width="720" height="480" viewBox="0 0 720 480" fill="none" shape-rendering="geometricPrecision" aria-hidden="true">
  <path d="M 18 0 H 702 L 720 18 V 462 L 702 480 H 18 L 0 462 V 18 Z" fill="#05080A" fill-opacity="0.38" stroke="#FFB000" stroke-width="2" vector-effect="non-scaling-stroke"/>
  <path d="M 18 8 H 702 L 712 18 V 462 L 702 472 H 18 L 8 462 V 18 Z" fill="none" stroke="#FFB000" stroke-opacity="0.34" stroke-width="1" vector-effect="non-scaling-stroke"/>
  <path d="M 548 0 H 680 L 692 58 H 548" fill="#FFB000" fill-opacity="0.1" stroke="#FFB000" stroke-opacity="0.72" stroke-width="2"/>
  <line x1="30" y1="434" x2="690" y2="434" stroke="#FFB000" stroke-opacity="0.38" stroke-width="1"/>
  <line x1="42" y1="444" x2="42" y2="434" stroke="#FFB000" stroke-opacity="0.8" stroke-width="2" vector-effect="non-scaling-stroke"/>
  <line x1="94" y1="444" x2="94" y2="439" stroke="#FFB000" stroke-opacity="0.38" stroke-width="1" vector-effect="non-scaling-stroke"/>
  <line x1="146" y1="444" x2="146" y2="439" stroke="#FFB000" stroke-opacity="0.38" stroke-width="1" vector-effect="non-scaling-stroke"/>
  <line x1="198" y1="444" x2="198" y2="439" stroke="#FFB000" stroke-opacity="0.38" stroke-width="1" vector-effect="non-scaling-stroke"/>
  <line x1="250" y1="444" x2="250" y2="434" stroke="#FFB000" stroke-opacity="0.8" stroke-width="2" vector-effect="non-scaling-stroke"/>
  <line x1="302" y1="444" x2="302" y2="439" stroke="#FFB000" stroke-opacity="0.38" stroke-width="1" vector-effect="non-scaling-stroke"/>
  <line x1="354" y1="444" x2="354" y2="439" stroke="#FFB000" stroke-opacity="0.38" stroke-width="1" vector-effect="non-scaling-stroke"/>
  <line x1="406" y1="444" x2="406" y2="439" stroke="#FFB000" stroke-opacity="0.38" stroke-width="1" vector-effect="non-scaling-stroke"/>
  <line x1="458" y1="444" x2="458" y2="434" stroke="#FFB000" stroke-opacity="0.8" stroke-width="2" vector-effect="non-scaling-stroke"/>
  <line x1="510" y1="444" x2="510" y2="439" stroke="#FFB000" stroke-opacity="0.38" stroke-width="1" vector-effect="non-scaling-stroke"/>
  <line x1="562" y1="444" x2="562" y2="439" stroke="#FFB000" stroke-opacity="0.38" stroke-width="1" vector-effect="non-scaling-stroke"/>
  <line x1="614" y1="444" x2="614" y2="439" stroke="#FFB000" stroke-opacity="0.38" stroke-width="1" vector-effect="non-scaling-stroke"/>
  <polyline points="36,326.40000000000003 201.60000000000002,326.40000000000003 230.4,314.40000000000003 496.79999999999995,314.40000000000003 525.6,326.40000000000003 684,326.40000000000003" fill="none" stroke="#00D8FF" stroke-width="2" stroke-linecap="square" stroke-linejoin="bevel" vector-effect="non-scaling-stroke"/>
  <polygon points="36,320.40000000000003 42,326.40000000000003 36,332.40000000000003 30,326.40000000000003" fill="#05080A" stroke="#00D8FF" stroke-width="2"/>
  <polygon points="684,320.40000000000003 690,326.40000000000003 684,332.40000000000003 678,326.40000000000003" fill="#05080A" stroke="#00D8FF" stroke-width="1.5"/>
  <g transform="translate(18 18)"><path d="M 0 24 V 7 L 7 0 H 24" fill="none" stroke="#ECFBFF" stroke-width="2" stroke-linecap="square" stroke-linejoin="bevel" vector-effect="non-scaling-stroke"/><line x1="11" y1="11" x2="20" y2="11" stroke="#ECFBFF" stroke-opacity="0.36" stroke-width="1" vector-effect="non-scaling-stroke"/></g>
  <g transform="rotate(90 664 48)"><path d="M 655 48 Q 664 41.52 673 48 Q 664 54.48 655 48 Z" fill="none" stroke="#FFB000" stroke-width="2"/></g>
</svg>
